# xmcd
#
# Track frame offsets:
#	150
#	20051
#	48568
#	60521
#	82454
#	116789
#	137446
#	154984
#
# Disc length: 2501 seconds
#
# Revision: 0
# Processed by: cddbd v1.5.2PL0 Copyright (c) Steve Scherf et al.
# Submitted via: EasyCDDAExtractor 9.0.0.1
#
DISCID=7109c308
DTITLE=Hawkwind - First Avenue Minneapolis 21-05-91 Disc 1
DYEAR=1991
DGENRE=Hard Rock
TTITLE0=Intro
TTITLE1=Needle Gun
TTITLE2=Treadmill
TTITLE3=Time We Left
TTITLE4=Heads
TTITLE5=Time We Left
TTITLE6=Starflight
TTITLE7=Master Of The Universe
EXTD=
EXTT0=
EXTT1=
EXTT2=
EXTT3=
EXTT4=
EXTT5=
EXTT6=
EXTT7=
PLAYORDER=
